<svg xmlns="http://www.w3.org/2000/svg" width="16" height="16" viewBox="0 0 16 16">
    <g fill="none" fill-rule="evenodd">
        <path d="M0 0h16v16H0z"/>
        <circle cx="8" cy="8" r="7.5" stroke="#1D1D1D"/>
        <path fill="#1D1D1D" fill-rule="nonzero" d="M6.628 11.956c3.325 0 5.144-2.755 5.144-5.144 0-.078-.002-.156-.005-.234.354-.257.66-.574.902-.938-.33.147-.68.242-1.039.285.378-.226.66-.581.795-1-.355.21-.743.359-1.148.439a1.809 1.809 0 0 0-3.08 1.65 5.132 5.132 0 0 1-3.728-1.89 1.81 1.81 0 0 0 .56 2.414 1.791 1.791 0 0 1-.82-.225v.024c.001.86.608 1.601 1.452 1.772a1.803 1.803 0 0 1-.817.031 1.81 1.81 0 0 0 1.688 1.256 3.628 3.628 0 0 1-2.676.748 5.12 5.12 0 0 0 2.772.812"/>
    </g>
</svg>
