<svg xmlns="http://www.w3.org/2000/svg" width="16" height="16" viewBox="0 0 16 16">
    <g fill="none" fill-rule="evenodd">
        <path d="M0 0h16v16H0z"/>
        <path stroke="#1D1D1D" d="M15.182 4.378c.324 1.206.318 3.722.318 3.722s.006 2.516-.318 3.722c-.138.517-.543.92-1.06 1.06C12.897 13.21 8 13.2 8 13.2s-4.897.01-6.12-.317a1.504 1.504 0 0 1-1.062-1.061C.494 10.616.5 8.1.5 8.1S.494 5.584.818 4.378c.138-.517.543-.92 1.06-1.06C3.103 2.99 8 3 8 3s4.897-.01 6.12.317c.52.14.924.544 1.062 1.061z"/>
        <path fill="#1D1D1D" d="M6.466 10.466V6.034l3.92 2.216z"/>
    </g>
</svg>
